<?xml version="1.0" standalone="no"?>
<!DOCTYPE svg PUBLIC "-//W3C//DTD SVG 20010904//EN"
 "http://www.w3.org/TR/2001/REC-SVG-20010904/DTD/svg10.dtd">
<svg version="1.0" xmlns="http://www.w3.org/2000/svg"
 width="300.000000pt" height="300.000000pt" viewBox="0 0 300.000000 300.000000"
 preserveAspectRatio="xMidYMid meet">
<metadata>
Created by potrace 1.11, written by Peter Selinger 2001-2013
</metadata>
<g transform="translate(0.000000,300.000000) scale(0.100000,-0.100000)"
fill="#000000" stroke="none">
<path d="M1507 2869 c-4 -9 -7 -86 -5 -173 3 -133 1 -156 -12 -156 -12 -1 -11
-3 3 -11 14 -8 17 -25 17 -104 0 -65 -4 -95 -12 -98 -10 -4 -10 -6 0 -6 9 -1
12 -27 12 -96 0 -52 -3 -95 -7 -95 -5 0 -6 -45 -5 -100 3 -61 0 -100 -6 -100
-5 0 -12 -9 -15 -19 -4 -15 -13 -20 -38 -19 -19 1 -37 6 -41 12 -5 8 -8 7 -8
-1 0 -23 -20 -14 -21 10 0 18 -2 19 -7 5 -4 -9 -34 -34 -68 -56 -108 -70 -188
-196 -196 -309 l-2 -33 -94 0 -94 0 6 58 c26 220 170 407 380 493 33 13 52 25
44 27 -28 5 -140 -53 -206 -106 -138 -110 -210 -242 -237 -434 l-6 -38 -96 0
-95 0 7 68 c25 236 156 459 345 588 79 55 151 86 299 130 8 3 12 7 9 9 -3 3
-36 -4 -74 -16 -323 -100 -560 -385 -591 -711 l-6 -68 -96 0 -97 0 8 84 c36
412 333 771 733 885 39 11 61 20 49 20 -25 1 -126 -31 -199 -64 -147 -65 -330
-222 -426 -366 -104 -155 -153 -296 -174 -501 l-6 -58 -165 0 c-103 0 -164 -4
-164 -10 0 -6 61 -10 164 -10 122 0 166 -3 170 -12 5 -10 7 -10 12 0 4 8 34
12 99 12 81 0 94 -2 98 -17 4 -17 5 -17 6 0 1 15 13 17 95 17 101 0 118 -9 96
-51 -8 -14 -7 -19 2 -19 10 0 10 -2 -1 -9 -9 -6 1 -9 28 -9 40 -1 42 1 39 26
-2 19 -9 27 -23 27 -11 0 -21 8 -23 18 -3 15 6 17 87 17 84 0 91 -1 91 -20 0
-11 7 -20 15 -20 8 0 15 -5 15 -11 0 -5 -5 -7 -11 -3 -8 5 -8 1 0 -14 7 -13 7
-22 1 -24 -18 -6 60 -142 112 -195 60 -61 151 -109 226 -119 l52 -7 0 -91 0
-92 -72 8 c-130 16 -264 84 -354 181 -68 73 -101 129 -134 230 -15 44 -30 75
-33 70 -8 -13 35 -132 72 -196 94 -165 273 -281 466 -305 l60 -7 3 -94 3 -94
-78 5 c-324 23 -620 274 -704 598 -12 47 -22 102 -23 123 0 26 -5 37 -16 37
-9 0 -11 -3 -5 -8 6 -4 12 -29 13 -57 2 -27 17 -92 34 -143 100 -304 366 -522
688 -563 l90 -12 0 -93 0 -94 -44 0 c-65 0 -201 26 -285 55 -204 69 -394 216
-513 397 -57 87 -75 103 -32 31 40 -71 80 -121 153 -193 184 -183 406 -282
680 -302 l33 -3 -1 -162 c-1 -103 2 -164 9 -168 7 -4 10 48 10 164 0 168 0
170 23 174 l22 4 -22 2 c-22 1 -23 5 -23 96 0 88 1 95 20 95 11 0 20 5 20 10
0 6 -9 10 -20 10 -19 0 -20 7 -20 95 l0 95 30 0 c22 0 28 -4 24 -15 -4 -8 -1
-15 5 -15 6 0 11 14 11 30 0 17 -4 30 -10 30 -5 0 -10 -4 -10 -8 0 -4 -9 -8
-20 -8 -19 0 -20 7 -20 92 0 88 1 93 23 96 12 2 21 9 19 16 -1 6 2 12 8 12 5
0 10 -10 11 -22 l0 -23 9 22 c6 15 17 21 37 21 63 -2 171 77 229 167 34 54 64
141 64 187 l0 28 95 0 c110 0 105 7 80 -115 -38 -184 -159 -339 -324 -417 -50
-24 -91 -46 -91 -50 0 -19 138 51 208 104 130 101 232 291 232 435 l0 43 100
0 c116 0 108 11 84 -125 -52 -299 -252 -537 -535 -635 -46 -16 -76 -29 -67
-29 28 -1 139 42 209 81 197 111 353 326 399 549 11 52 20 109 20 127 l0 32
95 0 95 0 0 -54 c0 -105 -46 -278 -106 -396 -131 -260 -363 -448 -657 -530
-56 -16 -62 -19 -27 -15 206 26 489 220 627 428 108 164 173 355 173 508 l0
59 170 0 c107 0 170 4 170 10 0 6 -63 10 -169 10 l-168 0 -6 88 c-26 376 -312
743 -677 869 -95 32 -243 63 -306 63 l-34 0 -2 173 c-2 95 -7 165 -11 156z
m218 -366 c147 -28 281 -90 412 -190 222 -168 373 -446 390 -718 l6 -80 -96 3
-95 3 -6 60 c-4 33 -16 94 -27 136 -84 330 -379 580 -716 610 l-73 6 0 99 0
100 63 -7 c34 -3 98 -13 142 -22z m24 -219 c102 -30 193 -78 278 -147 170
-137 267 -321 298 -564 l7 -53 -101 0 -101 0 0 41 c0 159 -124 365 -284 469
-67 44 -179 84 -268 95 l-58 7 0 95 0 96 71 -7 c40 -4 111 -19 158 -32z m-81
-194 c41 -11 100 -34 132 -50 74 -37 172 -128 221 -203 42 -64 84 -183 94
-264 l7 -53 -95 0 -94 0 -6 51 c-19 155 -172 318 -323 344 -78 13 -74 7 -74
106 l0 89 33 0 c18 0 65 -9 105 -20z m-260 -380 c-1 -18 -6 -30 -15 -30 -16 0
-17 12 -1 28 9 9 9 12 -1 12 -7 0 -9 5 -6 10 12 20 24 10 23 -20z m42 10 c0
-13 -5 -18 -15 -14 -16 7 -19 17 -8 27 12 13 23 7 23 -13z m315 -15 c0 -32 -3
-35 -27 -35 -25 0 -28 3 -28 35 0 32 3 35 28 35 24 0 27 -3 27 -35z m-173
-135 c-2 -16 -7 -30 -11 -30 -3 0 -6 14 -6 30 0 17 5 30 11 30 6 0 9 -13 6
-30z m-262 -136 c0 -15 -6 -24 -15 -24 -15 0 -21 40 -9 53 12 11 24 -3 24 -29z
m-174 4 c0 -12 -8 -23 -16 -25 -13 -4 -13 -3 0 6 10 7 11 11 3 11 -7 0 -13 7
-13 15 0 8 6 15 14 15 7 0 13 -9 12 -22z m126 -3 c3 -16 1 -25 -7 -25 -8 0
-10 9 -7 25 2 14 6 25 7 25 1 0 5 -11 7 -25z m308 0 c0 -14 -4 -25 -9 -25 -4
0 -6 11 -3 25 2 14 6 25 8 25 2 0 4 -11 4 -25z m60 0 c0 -14 -4 -25 -10 -25
-5 0 -10 11 -10 25 0 14 5 25 10 25 6 0 10 -11 10 -25z m142 0 c3 -14 1 -25
-3 -25 -5 0 -9 11 -9 25 0 14 2 25 4 25 2 0 6 -11 8 -25z m60 0 c4 -20 1 -25
-16 -24 -11 0 -15 3 -8 6 6 2 12 13 12 24 0 27 7 24 12 -6z m-266 -163 c-12
-12 -18 8 -10 35 l8 28 4 -28 c2 -16 1 -31 -2 -35z m89 29 c0 -31 -25 -40 -32
-12 -3 12 -13 21 -25 21 -10 0 -16 4 -13 10 3 5 20 9 38 7 26 -2 32 -7 32 -26z"/>
<path d="M2197 2115 c9 -19 17 -34 19 -32 13 16 32 67 25 67 -5 0 -11 -10 -15
-22 -5 -19 -8 -20 -15 -8 -5 8 -7 18 -5 22 3 4 -2 8 -10 8 -14 0 -14 -4 1 -35z"/>
<path d="M2005 1977 c0 -19 5 -34 11 -34 5 0 8 13 6 29 -5 35 15 38 28 3 12
-32 16 -31 35 5 9 17 11 30 5 30 -5 0 -10 -7 -10 -15 0 -8 -4 -15 -10 -15 -5
0 -10 7 -10 15 0 10 -10 15 -27 15 -25 0 -28 -4 -28 -33z"/>
<path d="M1844 1850 c2 -16 -2 -31 -8 -34 -6 -2 18 -4 54 -4 36 0 60 2 53 4
-8 4 -9 14 -3 35 l9 29 -55 0 c-54 0 -54 0 -50 -30z m33 -22 c-3 -7 -5 -2 -5
12 0 14 2 19 5 13 2 -7 2 -19 0 -25z m30 0 c-3 -7 -5 -2 -5 12 0 14 2 19 5 13
2 -7 2 -19 0 -25z"/>
<path d="M1730 1705 c0 -14 5 -25 10 -25 6 0 10 11 10 25 0 14 -4 25 -10 25
-5 0 -10 -11 -10 -25z"/>
<path d="M1312 1440 c0 -14 2 -19 5 -12 2 6 2 18 0 25 -3 6 -5 1 -5 -13z"/>
<path d="M1662 1300 c0 -14 2 -19 5 -12 2 6 2 18 0 25 -3 6 -5 1 -5 -13z"/>
<path d="M1365 2780 c0 -23 5 -40 11 -40 7 0 9 11 6 28 l-5 27 31 -28 30 -29
4 41 c2 27 0 41 -8 41 -8 0 -10 -9 -7 -22 l6 -23 -25 23 c-34 31 -43 28 -43
-18z"/>
<path d="M1318 2530 c2 -16 7 -30 11 -30 4 0 6 14 3 30 -2 17 -7 30 -11 30 -4
0 -6 -13 -3 -30z"/>
<path d="M1352 2532 c3 -29 28 -43 28 -15 1 17 1 17 11 1 13 -23 29 -23 29 -1
0 15 2 14 14 -3 17 -22 23 -19 28 16 3 24 1 25 -55 27 -57 1 -58 1 -55 -25z
m15 -14 c-3 -7 -5 -2 -5 12 0 14 2 19 5 13 2 -7 2 -19 0 -25z m40 0 c-3 -7 -5
-2 -5 12 0 14 2 19 5 13 2 -7 2 -19 0 -25z m40 0 c-3 -7 -5 -2 -5 12 0 14 2
19 5 13 2 -7 2 -19 0 -25z"/>
<path d="M1360 2342 c0 -5 7 -9 15 -9 8 0 15 4 15 9 0 4 -7 8 -15 8 -8 0 -15
-4 -15 -8z"/>
<path d="M1400 2325 c0 -22 4 -24 38 -22 30 2 37 6 37 22 0 16 -7 20 -37 22
-34 2 -38 0 -38 -22z m17 -7 c-3 -8 -6 -5 -6 6 -1 11 2 17 5 13 3 -3 4 -12 1
-19z m40 0 c-3 -8 -6 -5 -6 6 -1 11 2 17 5 13 3 -3 4 -12 1 -19z"/>
<path d="M2320 2282 c0 -15 25 -62 33 -62 10 0 9 15 -5 45 -11 24 -28 34 -28
17z"/>
<path d="M2367 2283 c-4 -3 -7 -13 -7 -22 1 -13 4 -12 16 4 15 19 16 19 12
-12 -4 -25 -1 -33 11 -33 12 0 16 10 16 35 0 29 -4 35 -21 35 -11 0 -24 -3
-27 -7z"/>
<path d="M1371 2132 c-17 -33 -8 -40 51 -38 49 1 53 3 53 25 0 13 -6 26 -13
29 -8 2 -10 -2 -5 -15 7 -17 6 -17 -11 0 -24 23 -37 22 -44 -5 -6 -23 -6 -23
-12 2 l-6 25 -13 -23z m46 -14 c-3 -8 -6 -5 -6 6 -1 11 2 17 5 13 3 -3 4 -12
1 -19z"/>
<path d="M2802 1628 c15 -47 27 -57 34 -30 8 28 20 28 28 0 7 -29 23 -14 32
30 4 21 3 32 -5 32 -6 0 -11 -10 -12 -22 0 -22 -1 -22 -10 2 -10 23 -11 24
-23 8 -16 -22 -30 -24 -22 -3 3 10 -1 15 -14 15 -17 0 -18 -3 -8 -32z"/>
<path d="M410 1440 c0 -18 5 -30 13 -30 9 0 12 10 9 30 -2 17 -8 30 -13 30 -5
0 -9 -13 -9 -30z"/>
<path d="M444 1456 c-11 -29 3 -46 38 -43 25 2 34 8 36 25 3 16 -2 22 -16 22
-11 0 -27 3 -36 6 -10 4 -18 0 -22 -10z m23 -28 c-3 -7 -5 -2 -5 12 0 14 2 19
5 13 2 -7 2 -19 0 -25z m40 0 c-3 -8 -6 -5 -6 6 -1 11 2 17 5 13 3 -3 4 -12 1
-19z"/>
<path d="M733 1463 c-7 -3 -13 -11 -13 -19 0 -8 6 -14 13 -14 8 0 7 -4 -3 -10
-10 -7 -11 -10 -2 -10 7 0 15 6 18 14 8 22 1 44 -13 39z"/>
<path d="M1980 1440 c0 -18 5 -30 13 -30 9 0 12 10 9 30 -2 17 -8 30 -13 30
-5 0 -9 -13 -9 -30z"/>
<path d="M2037 1464 c-10 -10 -9 -26 1 -20 5 3 9 -1 9 -8 0 -8 -6 -12 -14 -9
-7 3 -13 -1 -13 -10 0 -10 8 -13 26 -9 20 4 24 10 22 30 -3 26 -18 38 -31 26z"/>
<path d="M216 1444 c-9 -8 -16 -22 -16 -29 0 -33 59 -60 75 -35 4 6 -5 10 -19
10 -21 0 -26 5 -26 26 0 23 3 26 25 22 20 -4 23 -3 14 8 -15 18 -34 18 -53 -2z"/>
<path d="M2190 1429 c0 -16 4 -28 9 -25 8 5 3 56 -5 56 -2 0 -4 -14 -4 -31z"/>
<path d="M2256 1445 c-3 -9 0 -15 8 -15 8 0 17 -6 19 -12 3 -7 5 -1 4 15 -1
29 -21 37 -31 12z"/>
<path d="M2395 1435 c0 -14 3 -25 8 -25 4 0 7 11 7 25 0 14 -3 25 -7 25 -5 0
-8 -11 -8 -25z"/>
<path d="M2446 1453 c5 -5 12 -12 15 -16 3 -5 9 -2 12 7 5 12 0 16 -15 16 -12
0 -17 -3 -12 -7z"/>
<path d="M2240 1404 c0 -14 3 -14 15 -4 8 7 15 14 15 16 0 2 -7 4 -15 4 -8 0
-15 -7 -15 -16z"/>
<path d="M491 1385 c-2 -54 49 -236 91 -317 30 -62 29 -43 -2 31 -27 64 -55
156 -78 261 -5 25 -10 36 -11 25z"/>
<path d="M1606 905 c-3 -9 0 -15 9 -15 8 0 15 -5 15 -11 0 -5 -4 -7 -10 -4 -5
3 -10 2 -10 -3 0 -5 15 -9 33 -8 27 1 32 6 35 29 3 25 1 27 -31 27 -22 0 -37
-6 -41 -15z m61 -27 c-3 -7 -5 -2 -5 12 0 14 2 19 5 13 2 -7 2 -19 0 -25z"/>
<path d="M1575 685 c0 -14 3 -25 8 -25 4 0 7 11 7 25 0 14 -3 25 -7 25 -5 0
-8 -11 -8 -25z"/>
<path d="M1618 701 c17 -10 17 -22 1 -32 -7 -4 2 -7 22 -6 28 2 34 6 35 25 1
12 -5 22 -12 22 -17 0 -18 -27 -1 -33 7 -3 5 -6 -5 -6 -12 -1 -18 6 -18 19 0
12 -7 20 -17 20 -14 0 -15 -2 -5 -9z"/>
<path d="M1573 480 c-1 -17 2 -30 7 -30 6 0 10 14 10 30 0 39 -14 39 -17 0z"/>
<path d="M1617 503 c-4 -3 1 -12 11 -20 11 -8 12 -12 3 -11 -7 2 -16 -3 -18
-9 -3 -9 6 -12 29 -10 23 2 34 8 36 21 5 22 -18 48 -25 28 -4 -9 -9 -10 -17
-3 -7 6 -16 8 -19 4z m50 -35 c-3 -7 -5 -2 -5 12 0 14 2 19 5 13 2 -7 2 -19 0
-25z"/>
<path d="M1580 180 c-17 -34 -18 -40 -5 -40 8 0 15 7 15 15 0 8 7 15 15 15 8
0 15 -7 15 -15 0 -8 7 -15 15 -15 8 0 15 2 15 5 0 12 -35 75 -42 75 -4 0 -17
-18 -28 -40z"/>
</g>
</svg>
